<?xml version="1.0" standalone="no"?>
<svg xmlns:xlink="http://www.w3.org/1999/xlink" id="wave" style="transform:rotate(0deg); transition: 0.3s" viewBox="0 0 1440 100" version="1.1" xmlns="http://www.w3.org/2000/svg"><defs><linearGradient id="sw-gradient-0" x1="0" x2="0" y1="1" y2="0"><stop stop-color="rgba(243, 106, 62, 1)" offset="0%"/><stop stop-color="rgba(255, 179, 11, 1)" offset="100%"/></linearGradient></defs><path style="transform:translate(0, 0px); opacity:1" fill="url(#sw-gradient-0)" d="M0,50L34.3,53.3C68.6,57,137,63,206,58.3C274.3,53,343,37,411,33.3C480,30,549,40,617,50C685.7,60,754,70,823,63.3C891.4,57,960,33,1029,35C1097.1,37,1166,63,1234,70C1302.9,77,1371,63,1440,61.7C1508.6,60,1577,70,1646,61.7C1714.3,53,1783,27,1851,18.3C1920,10,1989,20,2057,31.7C2125.7,43,2194,57,2263,66.7C2331.4,77,2400,83,2469,80C2537.1,77,2606,63,2674,55C2742.9,47,2811,43,2880,46.7C2948.6,50,3017,60,3086,61.7C3154.3,63,3223,57,3291,46.7C3360,37,3429,23,3497,26.7C3565.7,30,3634,50,3703,63.3C3771.4,77,3840,83,3909,73.3C3977.1,63,4046,37,4114,31.7C4182.9,27,4251,43,4320,43.3C4388.6,43,4457,27,4526,20C4594.3,13,4663,17,4731,26.7C4800,37,4869,53,4903,61.7L4937.1,70L4937.1,100L4902.9,100C4868.6,100,4800,100,4731,100C4662.9,100,4594,100,4526,100C4457.1,100,4389,100,4320,100C4251.4,100,4183,100,4114,100C4045.7,100,3977,100,3909,100C3840,100,3771,100,3703,100C3634.3,100,3566,100,3497,100C3428.6,100,3360,100,3291,100C3222.9,100,3154,100,3086,100C3017.1,100,2949,100,2880,100C2811.4,100,2743,100,2674,100C2605.7,100,2537,100,2469,100C2400,100,2331,100,2263,100C2194.3,100,2126,100,2057,100C1988.6,100,1920,100,1851,100C1782.9,100,1714,100,1646,100C1577.1,100,1509,100,1440,100C1371.4,100,1303,100,1234,100C1165.7,100,1097,100,1029,100C960,100,891,100,823,100C754.3,100,686,100,617,100C548.6,100,480,100,411,100C342.9,100,274,100,206,100C137.1,100,69,100,34,100L0,100Z"/></svg>