<?xml version="1.0" standalone="no"?>
<svg xmlns:xlink="http://www.w3.org/1999/xlink" id="wave" style="transform:rotate(180deg); transition: 0.3s" viewBox="0 0 1440 130" version="1.1" xmlns="http://www.w3.org/2000/svg"><defs><linearGradient id="sw-gradient-0" x1="0" x2="0" y1="1" y2="0"><stop stop-color="rgba(245, 160, 170, 1)" offset="0%"/><stop stop-color="rgba(245, 160, 170, 1)" offset="100%"/></linearGradient></defs><path style="transform:translate(0, 0px); opacity:1" fill="url(#sw-gradient-0)" d="M0,39L60,39C120,39,240,39,360,49.8C480,61,600,82,720,75.8C840,69,960,35,1080,21.7C1200,9,1320,17,1440,34.7C1560,52,1680,78,1800,80.2C1920,82,2040,61,2160,52C2280,43,2400,48,2520,60.7C2640,74,2760,95,2880,99.7C3000,104,3120,91,3240,86.7C3360,82,3480,87,3600,82.3C3720,78,3840,65,3960,67.2C4080,69,4200,87,4320,80.2C4440,74,4560,43,4680,34.7C4800,26,4920,39,5040,54.2C5160,69,5280,87,5400,86.7C5520,87,5640,69,5760,71.5C5880,74,6000,95,6120,99.7C6240,104,6360,91,6480,73.7C6600,56,6720,35,6840,36.8C6960,39,7080,65,7200,62.8C7320,61,7440,30,7560,19.5C7680,9,7800,17,7920,28.2C8040,39,8160,52,8280,65C8400,78,8520,91,8580,97.5L8640,104L8640,130L8580,130C8520,130,8400,130,8280,130C8160,130,8040,130,7920,130C7800,130,7680,130,7560,130C7440,130,7320,130,7200,130C7080,130,6960,130,6840,130C6720,130,6600,130,6480,130C6360,130,6240,130,6120,130C6000,130,5880,130,5760,130C5640,130,5520,130,5400,130C5280,130,5160,130,5040,130C4920,130,4800,130,4680,130C4560,130,4440,130,4320,130C4200,130,4080,130,3960,130C3840,130,3720,130,3600,130C3480,130,3360,130,3240,130C3120,130,3000,130,2880,130C2760,130,2640,130,2520,130C2400,130,2280,130,2160,130C2040,130,1920,130,1800,130C1680,130,1560,130,1440,130C1320,130,1200,130,1080,130C960,130,840,130,720,130C600,130,480,130,360,130C240,130,120,130,60,130L0,130Z"/></svg>