<?xml version="1.0" standalone="no"?>
<svg xmlns:xlink="http://www.w3.org/1999/xlink" id="wave" style="transform:rotate(180deg); transition: 0.3s" viewBox="0 0 1440 190" version="1.1" xmlns="http://www.w3.org/2000/svg"><defs><linearGradient id="sw-gradient-0" x1="0" x2="0" y1="1" y2="0"><stop stop-color="rgba(245, 160, 170, 1)" offset="0%"/><stop stop-color="rgba(245, 160, 170, 1)" offset="100%"/></linearGradient></defs><path style="transform:translate(0, 0px); opacity:1" fill="url(#sw-gradient-0)" d="M0,57L60,57C120,57,240,57,360,72.8C480,89,600,120,720,110.8C840,101,960,51,1080,31.7C1200,13,1320,25,1440,50.7C1560,76,1680,114,1800,117.2C1920,120,2040,89,2160,76C2280,63,2400,70,2520,88.7C2640,108,2760,139,2880,145.7C3000,152,3120,133,3240,126.7C3360,120,3480,127,3600,120.3C3720,114,3840,95,3960,98.2C4080,101,4200,127,4320,117.2C4440,108,4560,63,4680,50.7C4800,38,4920,57,5040,79.2C5160,101,5280,127,5400,126.7C5520,127,5640,101,5760,104.5C5880,108,6000,139,6120,145.7C6240,152,6360,133,6480,107.7C6600,82,6720,51,6840,53.8C6960,57,7080,95,7200,91.8C7320,89,7440,44,7560,28.5C7680,13,7800,25,7920,41.2C8040,57,8160,76,8280,95C8400,114,8520,133,8580,142.5L8640,152L8640,190L8580,190C8520,190,8400,190,8280,190C8160,190,8040,190,7920,190C7800,190,7680,190,7560,190C7440,190,7320,190,7200,190C7080,190,6960,190,6840,190C6720,190,6600,190,6480,190C6360,190,6240,190,6120,190C6000,190,5880,190,5760,190C5640,190,5520,190,5400,190C5280,190,5160,190,5040,190C4920,190,4800,190,4680,190C4560,190,4440,190,4320,190C4200,190,4080,190,3960,190C3840,190,3720,190,3600,190C3480,190,3360,190,3240,190C3120,190,3000,190,2880,190C2760,190,2640,190,2520,190C2400,190,2280,190,2160,190C2040,190,1920,190,1800,190C1680,190,1560,190,1440,190C1320,190,1200,190,1080,190C960,190,840,190,720,190C600,190,480,190,360,190C240,190,120,190,60,190L0,190Z"/></svg>