<?xml version="1.0" standalone="no"?>
<svg xmlns:xlink="http://www.w3.org/1999/xlink" id="wave" style="transform:rotate(180deg); transition: 0.3s" viewBox="0 0 1440 230" version="1.1" xmlns="http://www.w3.org/2000/svg"><defs><linearGradient id="sw-gradient-0" x1="0" x2="0" y1="1" y2="0"><stop stop-color="rgba(245, 160, 170, 1)" offset="0%"/><stop stop-color="rgba(245, 160, 170, 1)" offset="100%"/></linearGradient></defs><path style="transform:translate(0, 0px); opacity:1" fill="url(#sw-gradient-0)" d="M0,69L60,69C120,69,240,69,360,88.2C480,107,600,146,720,134.2C840,123,960,61,1080,38.3C1200,15,1320,31,1440,61.3C1560,92,1680,138,1800,141.8C1920,146,2040,107,2160,92C2280,77,2400,84,2520,107.3C2640,130,2760,169,2880,176.3C3000,184,3120,161,3240,153.3C3360,146,3480,153,3600,145.7C3720,138,3840,115,3960,118.8C4080,123,4200,153,4320,141.8C4440,130,4560,77,4680,61.3C4800,46,4920,69,5040,95.8C5160,123,5280,153,5400,153.3C5520,153,5640,123,5760,126.5C5880,130,6000,169,6120,176.3C6240,184,6360,161,6480,130.3C6600,100,6720,61,6840,65.2C6960,69,7080,115,7200,111.2C7320,107,7440,54,7560,34.5C7680,15,7800,31,7920,49.8C8040,69,8160,92,8280,115C8400,138,8520,161,8580,172.5L8640,184L8640,230L8580,230C8520,230,8400,230,8280,230C8160,230,8040,230,7920,230C7800,230,7680,230,7560,230C7440,230,7320,230,7200,230C7080,230,6960,230,6840,230C6720,230,6600,230,6480,230C6360,230,6240,230,6120,230C6000,230,5880,230,5760,230C5640,230,5520,230,5400,230C5280,230,5160,230,5040,230C4920,230,4800,230,4680,230C4560,230,4440,230,4320,230C4200,230,4080,230,3960,230C3840,230,3720,230,3600,230C3480,230,3360,230,3240,230C3120,230,3000,230,2880,230C2760,230,2640,230,2520,230C2400,230,2280,230,2160,230C2040,230,1920,230,1800,230C1680,230,1560,230,1440,230C1320,230,1200,230,1080,230C960,230,840,230,720,230C600,230,480,230,360,230C240,230,120,230,60,230L0,230Z"/></svg>