<?xml version="1.0" standalone="no"?>
<svg xmlns:xlink="http://www.w3.org/1999/xlink" id="wave" style="transform:rotate(180deg); transition: 0.3s" viewBox="0 0 1440 100" version="1.1" xmlns="http://www.w3.org/2000/svg"><defs><linearGradient id="sw-gradient-0" x1="0" x2="0" y1="1" y2="0"><stop stop-color="rgba(245, 160, 170, 1)" offset="0%"/><stop stop-color="rgba(245, 160, 170, 1)" offset="100%"/></linearGradient></defs><path style="transform:translate(0, 0px); opacity:1" fill="url(#sw-gradient-0)" d="M0,30L60,30C120,30,240,30,360,38.3C480,47,600,63,720,58.3C840,53,960,27,1080,16.7C1200,7,1320,13,1440,26.7C1560,40,1680,60,1800,61.7C1920,63,2040,47,2160,40C2280,33,2400,37,2520,46.7C2640,57,2760,73,2880,76.7C3000,80,3120,70,3240,66.7C3360,63,3480,67,3600,63.3C3720,60,3840,50,3960,51.7C4080,53,4200,67,4320,61.7C4440,57,4560,33,4680,26.7C4800,20,4920,30,5040,41.7C5160,53,5280,67,5400,66.7C5520,67,5640,53,5760,55C5880,57,6000,73,6120,76.7C6240,80,6360,70,6480,56.7C6600,43,6720,27,6840,28.3C6960,30,7080,50,7200,48.3C7320,47,7440,23,7560,15C7680,7,7800,13,7920,21.7C8040,30,8160,40,8280,50C8400,60,8520,70,8580,75L8640,80L8640,100L8580,100C8520,100,8400,100,8280,100C8160,100,8040,100,7920,100C7800,100,7680,100,7560,100C7440,100,7320,100,7200,100C7080,100,6960,100,6840,100C6720,100,6600,100,6480,100C6360,100,6240,100,6120,100C6000,100,5880,100,5760,100C5640,100,5520,100,5400,100C5280,100,5160,100,5040,100C4920,100,4800,100,4680,100C4560,100,4440,100,4320,100C4200,100,4080,100,3960,100C3840,100,3720,100,3600,100C3480,100,3360,100,3240,100C3120,100,3000,100,2880,100C2760,100,2640,100,2520,100C2400,100,2280,100,2160,100C2040,100,1920,100,1800,100C1680,100,1560,100,1440,100C1320,100,1200,100,1080,100C960,100,840,100,720,100C600,100,480,100,360,100C240,100,120,100,60,100L0,100Z"/></svg>